<?xml version="1.0" encoding="utf-8"?>
<!-- Generator: Adobe Illustrator 21.1.0, SVG Export Plug-In . SVG Version: 6.00 Build 0)  -->
<svg version="1.1" id="Layer_1" xmlns="http://www.w3.org/2000/svg" xmlns:xlink="http://www.w3.org/1999/xlink" x="0px" y="0px"
	 viewBox="0 0 211.3 237.3" style="enable-background:new 0 0 211.3 237.3;" xml:space="preserve">
<style type="text/css">
	.st0{fill:#333333;}
</style>
<g id="Layer_1_1_">
</g>
<polygon class="st0" points="131.1,67.3 106.8,67.3 71.7,158.4 93.7,158.4 99.4,142.9 132.6,142.9 126.6,125.8 104.8,125.8 
	119,86.7 144.2,158.4 166.2,158.4 "/>
<g>
	<path class="st0" d="M206.3,186c-1.7,0-3.2,0.8-4.1,2.1c0,0-4.4,5-6.7,7.4c-10,10-21.6,17.8-34.5,23.3c-13.4,5.7-27.6,8.5-42.3,8.5
		c-14.7,0-28.9-2.9-42.3-8.5c-12.9-5.5-24.6-13.3-34.5-23.3c-10-10-17.8-21.6-23.3-34.5c-5.7-13.4-8.5-27.6-8.5-42.3
		s2.9-28.9,8.5-42.3C24,63.4,31.9,51.8,41.8,41.8S63.4,24,76.4,18.6C89.8,12.9,104,10,118.7,10c14.7,0,28.9,2.9,42.3,8.5
		c9.4,4,18.1,9.2,26,15.6c-0.4,1.2-0.7,2.6-0.7,4c0,6.8,5.5,12.3,12.3,12.3c6.8,0,12.3-5.5,12.3-12.3c0-6.8-5.5-12.3-12.3-12.3
		c-1.7,0-3.3,0.3-4.7,1C173.4,10.1,147.2,0,118.7,0C53.1,0,0,53.1,0,118.7s53.1,118.7,118.7,118.7c36.7,0,69.4-16.6,91.2-42.8
		c0.9-0.9,1.5-2.2,1.5-3.5C211.3,188.2,209.1,186,206.3,186z"/>
</g>
</svg>
