<svg viewBox="0 0 62 62" xmlns="http://www.w3.org/2000/svg"><g fill="#4b67a5" fill-rule="evenodd" transform="matrix(.70711-.70711.70711.70711-11 33.475)"><ellipse cx="31.5" cy="28" rx="5.903" ry="5.874"/><path d="m42.577 34.36c8.694-14.984 10.783-29.981 4.665-33.495-6.118-3.515-18.13 5.784-26.82 20.768-8.694 14.984-10.783 29.981-4.665 33.495 6.118 3.515 18.13-5.784 26.82-20.768m-19.343-11.11c7.876-13.574 18.512-21.81 22.385-19.585 3.872 2.225 2.022 15.508-5.854 29.08-7.876 13.574-18.512 21.81-22.385 19.585-3.872-2.225-2.022-15.508 5.854-29.08"/><path d="m42.577 21.636c-8.694-14.984-20.702-24.282-26.82-20.768-6.118 3.515-4.03 18.511 4.665 33.495 8.694 14.984 20.702 24.282 26.82 20.768 6.118-3.515 4.03-18.511-4.665-33.495m-19.343 11.11c-7.876-13.574-9.726-26.857-5.854-29.08 3.872-2.225 14.508 6.01 22.385 19.585 7.876 13.574 9.726 26.857 5.854 29.08-3.872 2.225-14.508-6.01-22.385-19.585"/><path d="m31.5 15.273c-17.389 0-31.485 5.698-31.485 12.727 0 7.03 14.1 12.727 31.485 12.727 17.389 0 31.485-5.698 31.485-12.727 0-7.03-14.1-12.727-31.485-12.727m0 22.22c-15.752 0-28.24-5.05-28.24-9.497 0-4.449 12.486-9.497 28.24-9.497 15.752 0 28.24 5.05 28.24 9.497 0 4.449-12.486 9.497-28.24 9.497"/></g></svg>