<?xml version="1.0" encoding="utf-8"?>
<!-- Generator: Adobe Illustrator 21.1.0, SVG Export Plug-In . SVG Version: 6.00 Build 0)  -->
<svg version="1.1" id="Ebene_1" xmlns="http://www.w3.org/2000/svg" xmlns:xlink="http://www.w3.org/1999/xlink" x="0px" y="0px"
	 viewBox="0 0 96.6 96.5" style="enable-background:new 0 0 96.6 96.5;" xml:space="preserve">
<style type="text/css">
	.st0{fill:#77BC1F;}
</style>
<title>Spring-by-Pivotal</title>
<path class="st0" d="M87.8,5c-1.4,3.2-3.1,6.3-5.2,9.1c-18.9-18.9-49.6-18.9-68.5,0s-18.9,49.6,0,68.5c0.3,0.3,0.6,0.6,0.8,0.8
	l1.8,1.6c20.4,17.2,51,14.6,68.2-5.8c6.6-7.8,10.5-17.5,11.3-27.8C97.6,39.2,94,23.6,87.8,5z M21.9,83.8c-1.4,1.8-4,2.1-5.8,0.6
	s-2.1-4-0.6-5.8s4-2.1,5.8-0.6c0,0,0,0,0,0C23.1,79.4,23.4,82,21.9,83.8z M87.6,69.3C75.7,85.2,50.2,79.8,33.8,80.6
	c0,0-2.9,0.2-5.8,0.7c0,0,1.1-0.5,2.5-1c11.5-4,16.9-4.8,23.9-8.4c13.1-6.7,26.1-21.3,28.8-36.5c-5,14.6-20.2,27.2-34,32.3
	c-9.5,3.5-26.6,6.9-26.6,6.9L22,74.2c-11.6-5.7-12-30.9,9.2-39c9.3-3.6,18.1-1.6,28.1-4c10.7-2.5,23.1-10.5,28.1-21
	C93,26.9,99.8,53.1,87.6,69.3L87.6,69.3z"/>
</svg>
